<?xml version="1.0" standalone="no"?>
<!DOCTYPE svg PUBLIC "-//W3C//DTD SVG 20010904//EN"
 "http://www.w3.org/TR/2001/REC-SVG-20010904/DTD/svg10.dtd">
<svg version="1.0" xmlns="http://www.w3.org/2000/svg"
 width="700.000000pt" height="700.000000pt" viewBox="0 0 700.000000 700.000000"
 preserveAspectRatio="xMidYMid meet">
<metadata>
Created by potrace 1.11, written by Peter Selinger 2001-2013
</metadata>
<g transform="translate(0.000000,700.000000) scale(0.100000,-0.100000)"
fill="#000000" stroke="none">
<path d="M963 6074 c-100 -21 -149 -55 -170 -119 -15 -44 -7 -133 18 -207 24
-73 88 -198 100 -198 5 0 10 16 10 35 1 19 2 38 3 43 1 4 6 23 10 42 12 51 42
106 68 124 36 26 71 19 165 -30 136 -72 174 -90 228 -107 85 -27 105 -30 263
-31 l153 -2 47 -47 47 -48 -45 20 c-50 22 -156 37 -195 27 -37 -10 -52 -75
-54 -241 -2 -150 -4 -155 -56 -155 -39 0 -171 -47 -264 -94 -62 -32 -79 -37
-105 -29 -34 10 -78 67 -96 125 -11 39 -29 51 -31 21 0 -10 -2 -27 -5 -38 -9
-45 -5 -213 6 -258 17 -65 60 -107 109 -107 35 0 123 39 182 81 15 10 30 19
33 19 3 0 30 16 60 35 78 50 253 132 306 144 25 6 80 17 124 25 81 16 131 44
162 91 26 40 19 138 -15 208 -23 47 -23 46 115 -80 17 -15 51 -44 75 -63 24
-19 59 -49 79 -66 133 -115 377 -290 542 -389 179 -107 227 -199 126 -239
-166 -67 -399 -299 -477 -478 -143 -322 5 -659 429 -973 58 -42 106 -80 107
-84 2 -3 -30 -27 -70 -53 -259 -170 -415 -394 -422 -610 -5 -129 29 -232 120
-368 53 -78 197 -221 298 -295 37 -27 67 -52 67 -57 0 -14 -124 -132 -195
-186 -95 -71 -252 -147 -355 -172 -68 -16 -109 -19 -210 -16 -409 13 -778 254
-908 593 -26 69 -33 96 -47 193 -2 14 -7 93 -10 175 -13 373 -23 483 -55 622
-48 202 -130 353 -265 488 -261 261 -595 377 -904 316 -51 -11 -76 -20 -55
-22 5 0 16 -2 24 -4 8 -2 42 -9 75 -15 145 -28 346 -113 476 -200 35 -24 100
-80 145 -124 130 -131 203 -260 249 -439 27 -110 34 -173 40 -412 3 -99 7
-191 9 -205 3 -14 7 -56 11 -95 8 -92 20 -166 49 -310 32 -155 138 -400 225
-520 201 -275 499 -405 912 -400 90 2 182 6 204 9 196 33 253 47 360 86 33 12
74 26 90 32 28 10 155 75 215 109 103 59 235 164 328 260 l69 72 90 -90 c133
-133 270 -231 438 -313 98 -48 281 -114 348 -125 18 -3 48 -10 67 -15 19 -5
60 -12 90 -15 30 -3 63 -8 73 -11 23 -7 329 -8 353 -1 10 3 44 9 74 12 183 21
386 116 525 246 223 209 342 512 400 1019 2 25 7 119 10 210 12 379 29 478
112 645 122 244 358 432 663 527 77 24 185 48 220 48 21 1 22 2 8 10 -52 31
-270 46 -368 26 -274 -57 -537 -229 -690 -451 -98 -143 -160 -332 -185 -565
-5 -54 -15 -239 -21 -410 -7 -214 -21 -293 -73 -414 -33 -74 -106 -179 -171
-245 -84 -85 -144 -128 -276 -199 -78 -42 -209 -81 -359 -107 -38 -6 -183 -7
-211 -1 -12 2 -37 7 -56 10 -167 26 -391 161 -551 333 l-27 29 99 78 c472 367
523 751 149 1112 -55 54 -212 175 -242 188 -13 5 -21 -2 105 88 107 77 253
215 320 303 180 236 210 468 93 700 -87 171 -262 345 -441 437 -43 23 -66 40
-70 56 -13 53 55 125 187 201 79 45 353 231 370 251 3 3 25 21 50 40 106 81
272 222 357 303 l40 39 -19 -58 c-25 -74 -27 -144 -5 -177 38 -58 109 -93 212
-103 98 -9 216 -62 444 -196 142 -85 159 -92 208 -93 46 0 57 4 74 25 24 30
37 60 45 103 7 42 6 205 -2 237 -3 14 -6 33 -6 43 1 31 -15 18 -27 -25 -15
-50 -63 -123 -86 -132 -30 -11 -48 -6 -125 33 -80 42 -185 80 -235 87 -79 11
-72 -3 -77 171 -6 174 -17 220 -54 229 -38 10 -190 -11 -200 -27 -3 -5 -10 -9
-16 -9 -6 0 6 17 27 37 l38 37 136 -1 c195 -3 262 13 462 110 126 62 150 69
191 55 47 -17 98 -126 98 -211 0 -24 4 -37 11 -35 23 8 96 164 115 245 11 48
12 136 2 165 -12 33 -54 77 -88 91 -94 38 -274 42 -465 10 -81 -13 -209 -9
-269 9 -84 25 -183 5 -225 -46 -11 -13 -36 -16 -125 -16 -140 0 -208 -6 -271
-27 -93 -30 -131 -63 -235 -201 -55 -74 -218 -237 -320 -321 -41 -35 -84 -70
-95 -79 -11 -10 -36 -28 -55 -42 -19 -13 -41 -30 -47 -36 -24 -23 -240 -173
-358 -249 -102 -65 -123 -75 -152 -70 -52 8 -339 197 -568 374 -128 99 -152
120 -260 221 -116 109 -139 134 -225 245 -81 104 -112 130 -192 164 -54 23
-196 39 -312 35 -73 -2 -81 -1 -119 27 -67 48 -147 64 -211 42 -38 -13 -234
-21 -252 -10 -35 20 -309 28 -391 11z m689 -160 c15 -8 32 -23 38 -33 8 -16 4
-24 -20 -44 -55 -47 -118 -46 -200 1 l-44 25 33 26 c64 50 129 58 193 25z
m3865 -10 c23 -13 45 -28 48 -34 8 -12 -72 -57 -117 -65 -46 -9 -98 8 -128 40
-20 21 -21 27 -9 41 23 28 87 52 127 47 20 -2 56 -15 79 -29z m-1923 -1624
c85 -38 195 -116 258 -185 41 -44 88 -143 94 -201 11 -86 -24 -178 -95 -253
-62 -67 -216 -158 -318 -191 -49 -15 -85 -5 -213 61 -142 74 -224 151 -260
247 -41 107 -3 255 91 353 45 47 149 129 164 129 5 0 16 6 24 14 9 8 47 28 85
44 60 26 71 28 95 17 14 -7 48 -23 75 -35z m-30 -1481 c216 -147 356 -318 342
-418 -3 -22 -12 -56 -20 -76 -35 -82 -179 -236 -320 -342 l-70 -51 -77 59
c-213 165 -343 330 -341 435 2 85 74 185 212 297 81 65 187 137 203 137 5 0
37 -19 71 -41z"/>
<path d="M1561 5478 c-84 -95 -154 -121 -273 -99 -35 6 -81 14 -103 17 -64 9
-356 12 -395 3 -19 -4 -51 -10 -70 -13 -165 -25 -345 -138 -400 -250 -43 -89
-31 -170 37 -253 52 -65 113 -97 184 -97 32 0 62 3 65 7 4 3 -8 18 -26 33 -85
72 -94 227 -19 318 84 101 234 134 591 131 128 -1 249 3 268 8 72 19 133 85
170 184 11 31 19 57 18 58 -2 2 -23 -20 -47 -47z"/>
<path d="M5396 5505 c11 -53 66 -145 106 -180 22 -18 56 -37 76 -42 20 -5 136
-8 257 -7 121 1 249 -2 285 -7 36 -5 81 -11 100 -13 53 -7 150 -50 191 -84 53
-45 81 -111 78 -186 -2 -69 -15 -101 -65 -155 l-34 -39 26 -5 c78 -15 146 11
213 81 84 88 99 173 46 273 -92 178 -337 272 -680 264 -140 -4 -174 -7 -274
-25 -140 -25 -216 7 -316 135 -15 19 -15 19 -9 -10z"/>
</g>
</svg>
